# xmcd
#
# Track frame offsets:
#   150
#   14582
#   29535
#   44339
#   59517
#   76269
#   92200
#   105500
#   119883
#   132612
#   152012
#   167288
#   181048
#   195025
#   206875
#
# Disc length: 2999 seconds
#
# Revision: 0
# Processed by: cddbd v1.5.2PL0 Copyright (c) Steve Scherf et al.
# Submitted via: uFREEDB ActiveX Control 1.5
#
DISCID=c80bb50f
DTITLE=Leonardo Alucinação - Leonardo Alucinação
DYEAR=1900
DGENRE=Country
TTITLE0=Leonardo Alucinação1
TTITLE1=Leonardo Alucinação2
TTITLE2=Leonardo Alucinação3
TTITLE3=Leonardo Alucinação4
TTITLE4=Leonardo Alucinação5
TTITLE5=Leonardo Alucinação6
TTITLE6=Leonardo Alucinação7
TTITLE7=Leonardo Alucinação8
TTITLE8=Leonardo Alucinação9
TTITLE9=Leonardo Alucinação10
TTITLE10=Leonardo Alucinação11
TTITLE11=Leonardo Alucinação12
TTITLE12=Leonardo Alucinação13
TTITLE13=Leonardo Alucinação14
TTITLE14=Leonardo Alucinação15
EXTD=
EXTT0=
EXTT1=
EXTT2=
EXTT3=
EXTT4=
EXTT5=
EXTT6=
EXTT7=
EXTT8=
EXTT9=
EXTT10=
EXTT11=
EXTT12=
EXTT13=
EXTT14=
PLAYORDER=
